<?xml version="1.0" encoding="UTF-8" standalone="no"?>
<svg width="114px" height="44px" viewBox="0 0 114 44" version="1.1" xmlns="http://www.w3.org/2000/svg" xmlns:xlink="http://www.w3.org/1999/xlink" xmlns:sketch="http://www.bohemiancoding.com/sketch/ns">
    <title>text_logo</title>
    <description>Created with Sketch (http://www.bohemiancoding.com/sketch)</description>
    <defs></defs>
    <g id="Page-2" stroke="none" stroke-width="1" fill="none" fill-rule="evenodd" sketch:type="MSPage">
        <g id="work" sketch:type="MSLayerGroup" transform="translate(-2002.000000, -1782.000000)"></g>
        <path d="M1.13671875,14.3359375 L1.42382812,11.7246094 L10.8847656,11.7246094 L10.8847656,14.3359375 L8.64257812,14.5820312 L10.9394531,27.078125 L11.2539063,27.078125 L14.0976563,15.2792969 L19.2246094,15.2792969 L22.0546875,27.078125 L22.3691406,27.078125 L24.6660156,14.5820312 L22.4238281,14.3359375 L22.6972656,11.7246094 L30.9003906,11.7246094 L30.9003906,14.3359375 L29.6425781,14.6367188 C29.2688783,14.727865 29.0455733,14.8873687 28.9726563,15.1152344 L25.3359375,32 L18.28125,32 L16.0664062,23.2636719 L15.8339844,23.2636719 L13.9335938,32 L7.04296875,32 L3.078125,15.1152344 C3.00520797,14.8873687 2.77734566,14.727865 2.39453125,14.6367188 C2.39453125,14.6367188 2.77734566,14.727865 2.39453125,14.6367188 L1.13671875,14.3359375 Z M31.2832031,20.0097656 L31.6523438,17.3027344 L38.3515625,17.3027344 L38.3515625,28.609375 C38.3515625,28.8372407 38.3743487,28.9830726 38.4199219,29.046875 C38.465495,29.1106774 38.5885407,29.1516926 38.7890625,29.1699219 L39.9921875,29.3613281 L39.9921875,32 L31.4882812,32 L31.4882812,29.3339844 L32.6640625,29.1699219 C32.8463551,29.1516926 32.9671221,29.1061202 33.0263672,29.0332031 C33.0856123,28.9602861 33.1152344,28.8190115 33.1152344,28.609375 L33.1152344,21.1308594 C33.1152344,20.8118474 32.9921887,20.6158858 32.7460938,20.5429688 C32.7460938,20.5429688 32.9921887,20.6158858 32.7460938,20.5429688 L31.2832031,20.0097656 Z M32.4042969,12.6201172 C32.4042969,11.6858677 32.6663385,10.9681015 33.1904297,10.4667969 C33.7145208,9.96549229 34.4414016,9.71484375 35.3710938,9.71484375 C36.3190152,9.71484375 37.057289,9.96549229 37.5859375,10.4667969 C38.114586,10.9681015 38.3789062,11.6858677 38.3789062,12.6201172 C38.3789062,13.5543667 38.1168646,14.283526 37.5927734,14.8076172 C37.0686823,15.3317083 36.3281298,15.59375 35.3710938,15.59375 C34.4414016,15.59375 33.7145208,15.3317083 33.1904297,14.8076172 C32.6663385,14.283526 32.4042969,13.5543667 32.4042969,12.6201172 C32.4042969,12.6201172 32.4042969,13.5543667 32.4042969,12.6201172 Z M40.4570312,13.5703125 L40.8261719,10.8632812 L47.5253906,10.8632812 L47.5253906,28.609375 C47.5253906,28.8372407 47.5481769,28.9830726 47.59375,29.046875 C47.6393231,29.1106774 47.7623688,29.1516926 47.9628906,29.1699219 L49.1660156,29.3613281 L49.1660156,32 L40.6621094,32 L40.6621094,29.3339844 L41.8378906,29.1699219 C42.0201832,29.1516926 42.1409502,29.1061202 42.2001953,29.0332031 C42.2594404,28.9602861 42.2890625,28.8190115 42.2890625,28.609375 L42.2890625,14.6914062 C42.2890625,14.3906235 42.1660169,14.1946619 41.9199219,14.1035156 C41.9199219,14.1035156 42.1660169,14.1946619 41.9199219,14.1035156 L40.4570312,13.5703125 Z M49.9726562,24.7539062 C49.9726562,22.1015492 50.5514265,20.144212 51.7089844,18.8818359 C52.8665422,17.6194598 54.2747313,16.9882812 55.9335938,16.9882812 C57.2552149,16.9882812 58.5084576,17.4394486 59.6933594,18.3417969 L59.6933594,14.6914062 C59.6933594,14.3906235 59.5703137,14.1946619 59.3242188,14.1035156 L57.875,13.5703125 L58.2304688,10.8632812 L64.6699219,10.8632812 L64.6699219,28.6367188 C64.6699219,28.8463552 64.6949867,28.9830726 64.7451172,29.046875 C64.7952476,29.1106774 64.9205719,29.1516926 65.1210938,29.1699219 L66.40625,29.3613281 L66.40625,32 L60.4179688,32 L60.1171875,30.4277344 L59.8847656,30.3730469 C58.67252,31.6764388 57.209644,32.3326822 55.4960938,32.3417969 C51.8137837,32.3417969 49.9726562,29.8125253 49.9726562,24.7539062 C49.9726562,24.7539062 49.9726562,29.8125253 49.9726562,24.7539062 Z M55.4960938,24.6650391 C55.4960938,25.7451226 55.6829408,26.6269497 56.0566406,27.3105469 C56.4303404,27.994144 57.0091107,28.3359375 57.7929688,28.3359375 C58.4127635,28.3359375 58.9733048,28.2037774 59.4746094,27.9394531 L59.4746094,21.390625 C58.918617,21.1080715 58.3945337,20.9667969 57.9023438,20.9667969 C57.0820271,20.9667969 56.4759134,21.3131476 56.0839844,22.0058594 C55.6920553,22.6985712 55.4960938,23.5849555 55.4960938,24.6650391 C55.4960938,24.6650391 55.4960938,23.5849555 55.4960938,24.6650391 Z M72.640625,32 L72.640625,29.3613281 L74.4042969,29.1699219 C74.5865895,29.1516926 74.7073565,29.1061202 74.7666016,29.0332031 C74.8258467,28.9602861 74.8554688,28.8190115 74.8554688,28.609375 L74.8554688,15.1425781 C74.8554688,14.9147124 74.8281253,14.7688805 74.7734375,14.7050781 C74.7187497,14.6412757 74.5957041,14.6002605 74.4042969,14.5820312 L72.640625,14.390625 L72.640625,11.7246094 L82.6347656,11.7246094 C85.0410277,11.7246094 86.7682239,12.2714789 87.8164062,13.3652344 C88.8645886,14.4589898 89.3886719,15.8990796 89.3886719,17.6855469 C89.3886719,22.3157784 86.8320568,24.6308594 81.71875,24.6308594 L80.2011719,24.6308594 L80.2011719,28.5820312 C80.2011719,28.809897 80.2239581,28.9557288 80.2695312,29.0195312 C80.3151044,29.0833337 80.4427073,29.1243489 80.6523438,29.1425781 L84.6582031,29.3613281 L84.6582031,32 L72.640625,32 Z M80.2011719,21.0488281 L80.7890625,21.0488281 C82.839854,21.0488281 83.8652344,20.0416767 83.8652344,18.0273438 C83.8652344,17.4257782 83.7832039,16.9358743 83.6191406,16.5576172 C83.4550773,16.1793601 83.2044288,15.9104826 82.8671875,15.7509766 C82.5299462,15.5914706 82.2360039,15.4934898 81.9853516,15.4570312 C81.7346993,15.4205727 81.4042989,15.4023438 80.9941406,15.4023438 L80.2011719,15.4023438 L80.2011719,21.0488281 Z M90.1816406,20.0097656 L90.5507812,17.3027344 L97.25,17.3027344 L97.25,28.609375 C97.25,28.8372407 97.2727862,28.9830726 97.3183594,29.046875 C97.3639325,29.1106774 97.4869782,29.1516926 97.6875,29.1699219 L98.890625,29.3613281 L98.890625,32 L90.3867188,32 L90.3867188,29.3339844 L91.5625,29.1699219 C91.7447926,29.1516926 91.8655596,29.1061202 91.9248047,29.0332031 C91.9840498,28.9602861 92.0136719,28.8190115 92.0136719,28.609375 L92.0136719,21.1308594 C92.0136719,20.8118474 91.8906262,20.6158858 91.6445312,20.5429688 C91.6445312,20.5429688 91.8906262,20.6158858 91.6445312,20.5429688 L90.1816406,20.0097656 Z M91.3027344,12.6201172 C91.3027344,11.6858677 91.564776,10.9681015 92.0888672,10.4667969 C92.6129583,9.96549229 93.3398391,9.71484375 94.2695312,9.71484375 C95.2174527,9.71484375 95.9557265,9.96549229 96.484375,10.4667969 C97.0130235,10.9681015 97.2773438,11.6858677 97.2773438,12.6201172 C97.2773438,13.5543667 97.0153021,14.283526 96.4912109,14.8076172 C95.9671198,15.3317083 95.2265673,15.59375 94.2695312,15.59375 C93.3398391,15.59375 92.6129583,15.3317083 92.0888672,14.8076172 C91.564776,14.283526 91.3027344,13.5543667 91.3027344,12.6201172 C91.3027344,12.6201172 91.3027344,13.5543667 91.3027344,12.6201172 Z M99.109375,20.6386719 L99.109375,17.6308594 C100.358079,17.3847644 101.29915,16.8948604 101.932617,16.1611328 C102.566084,15.4274052 103.005858,14.2767005 103.251953,12.7089844 L106.505859,12.7089844 L106.505859,17.015625 C106.505859,17.1979176 106.578775,17.2936197 106.724609,17.3027344 L110.59375,17.3027344 L110.59375,20.6386719 L106.505859,20.6386719 L106.505859,26.3671875 C106.505859,27.1875041 106.626626,27.7571599 106.868164,28.0761719 C107.109702,28.3951839 107.595048,28.5546875 108.324219,28.5546875 C108.980472,28.5546875 109.668616,28.4316419 110.388672,28.1855469 L111.236328,31.0703125 C109.668612,31.9088584 108.014332,32.3326822 106.273438,32.3417969 C104.441397,32.3417969 103.149418,31.9635454 102.397461,31.2070312 C101.645504,30.4505171 101.269531,29.1744881 101.269531,27.3789062 L101.269531,20.9121094 C101.269531,20.7298168 101.192058,20.6386719 101.037109,20.6386719 L99.109375,20.6386719 Z M99.109375,20.6386719" id="Wild-Pit" fill="#FFFFFF" sketch:type="MSShapeGroup"></path>
    </g>
</svg>